<mxfile host="app.diagrams.net" modified="2023-08-18T18:55:39.225Z" agent="Mozilla/5.0 (Windows NT 10.0; Win64; x64) AppleWebKit/537.36 (KHTML, like Gecko) Chrome/116.0.0.0 Safari/537.36" etag="B3UQy2gaHGHh5AlPwusj" version="21.6.8" type="device">
  <diagram id="C5RBs43oDa-KdzZeNtuy" name="Page-1">
    <mxGraphModel dx="1877" dy="1711" grid="1" gridSize="10" guides="1" tooltips="1" connect="1" arrows="1" fold="1" page="1" pageScale="1" pageWidth="827" pageHeight="1169" math="0" shadow="0">
      <root>
        <mxCell id="WIyWlLk6GJQsqaUBKTNV-0" />
        <mxCell id="WIyWlLk6GJQsqaUBKTNV-1" parent="WIyWlLk6GJQsqaUBKTNV-0" />
        <mxCell id="77qu3Phl0J8RK2gG2Oh3-15" style="edgeStyle=orthogonalEdgeStyle;rounded=0;orthogonalLoop=1;jettySize=auto;html=1;entryX=0.5;entryY=0;entryDx=0;entryDy=0;" edge="1" parent="WIyWlLk6GJQsqaUBKTNV-1" source="WIyWlLk6GJQsqaUBKTNV-3" target="0-e4BhALmLeR31hyGRKt-53">
          <mxGeometry relative="1" as="geometry" />
        </mxCell>
        <mxCell id="WIyWlLk6GJQsqaUBKTNV-3" value="Старт" style="rounded=1;whiteSpace=wrap;html=1;fontSize=12;glass=0;strokeWidth=1;shadow=0;" parent="WIyWlLk6GJQsqaUBKTNV-1" vertex="1">
          <mxGeometry x="320" y="-10" width="120" height="40" as="geometry" />
        </mxCell>
        <mxCell id="0-e4BhALmLeR31hyGRKt-58" style="edgeStyle=none;rounded=0;orthogonalLoop=1;jettySize=auto;html=1;exitX=0.5;exitY=1;exitDx=0;exitDy=0;entryX=0.5;entryY=0;entryDx=0;entryDy=0;" parent="WIyWlLk6GJQsqaUBKTNV-1" source="0-e4BhALmLeR31hyGRKt-53" target="77qu3Phl0J8RK2gG2Oh3-9" edge="1">
          <mxGeometry relative="1" as="geometry">
            <mxPoint x="370" y="170" as="targetPoint" />
          </mxGeometry>
        </mxCell>
        <mxCell id="0-e4BhALmLeR31hyGRKt-53" value="string [] FirstArray&lt;br&gt;string [] SecondArray&lt;br&gt;int count =0&lt;br&gt;int i=0" style="shape=parallelogram;perimeter=parallelogramPerimeter;whiteSpace=wrap;html=1;fixedSize=1;" parent="WIyWlLk6GJQsqaUBKTNV-1" vertex="1">
          <mxGeometry x="310" y="80" width="140" height="60" as="geometry" />
        </mxCell>
        <mxCell id="77qu3Phl0J8RK2gG2Oh3-4" style="edgeStyle=orthogonalEdgeStyle;rounded=0;orthogonalLoop=1;jettySize=auto;html=1;entryX=0.5;entryY=0;entryDx=0;entryDy=0;" edge="1" parent="WIyWlLk6GJQsqaUBKTNV-1" source="77qu3Phl0J8RK2gG2Oh3-0" target="77qu3Phl0J8RK2gG2Oh3-16">
          <mxGeometry relative="1" as="geometry">
            <mxPoint x="-290" y="440" as="targetPoint" />
            <Array as="points">
              <mxPoint x="380" y="410" />
              <mxPoint x="-150" y="410" />
              <mxPoint x="-150" y="120" />
              <mxPoint x="200" y="120" />
            </Array>
          </mxGeometry>
        </mxCell>
        <mxCell id="77qu3Phl0J8RK2gG2Oh3-5" value="No" style="edgeLabel;html=1;align=center;verticalAlign=middle;resizable=0;points=[];" vertex="1" connectable="0" parent="77qu3Phl0J8RK2gG2Oh3-4">
          <mxGeometry x="-0.0489" y="1" relative="1" as="geometry">
            <mxPoint as="offset" />
          </mxGeometry>
        </mxCell>
        <mxCell id="77qu3Phl0J8RK2gG2Oh3-7" style="edgeStyle=orthogonalEdgeStyle;rounded=0;orthogonalLoop=1;jettySize=auto;html=1;entryX=0.5;entryY=1;entryDx=0;entryDy=0;" edge="1" parent="WIyWlLk6GJQsqaUBKTNV-1" source="77qu3Phl0J8RK2gG2Oh3-0" target="77qu3Phl0J8RK2gG2Oh3-6">
          <mxGeometry relative="1" as="geometry" />
        </mxCell>
        <mxCell id="77qu3Phl0J8RK2gG2Oh3-12" value="Yes" style="edgeLabel;html=1;align=center;verticalAlign=middle;resizable=0;points=[];" vertex="1" connectable="0" parent="77qu3Phl0J8RK2gG2Oh3-7">
          <mxGeometry x="-0.4259" y="-4" relative="1" as="geometry">
            <mxPoint as="offset" />
          </mxGeometry>
        </mxCell>
        <mxCell id="77qu3Phl0J8RK2gG2Oh3-0" value="FirstArray[i].length&amp;lt;=3" style="rhombus;whiteSpace=wrap;html=1;" vertex="1" parent="WIyWlLk6GJQsqaUBKTNV-1">
          <mxGeometry x="290" y="290" width="180" height="80" as="geometry" />
        </mxCell>
        <mxCell id="77qu3Phl0J8RK2gG2Oh3-3" style="edgeStyle=orthogonalEdgeStyle;rounded=0;orthogonalLoop=1;jettySize=auto;html=1;entryX=0.5;entryY=0;entryDx=0;entryDy=0;exitX=0.5;exitY=1;exitDx=0;exitDy=0;" edge="1" parent="WIyWlLk6GJQsqaUBKTNV-1" source="77qu3Phl0J8RK2gG2Oh3-9" target="77qu3Phl0J8RK2gG2Oh3-0">
          <mxGeometry relative="1" as="geometry">
            <mxPoint x="380" y="240" as="sourcePoint" />
          </mxGeometry>
        </mxCell>
        <mxCell id="77qu3Phl0J8RK2gG2Oh3-11" value="Yes" style="edgeLabel;html=1;align=center;verticalAlign=middle;resizable=0;points=[];" vertex="1" connectable="0" parent="77qu3Phl0J8RK2gG2Oh3-3">
          <mxGeometry x="-0.365" relative="1" as="geometry">
            <mxPoint as="offset" />
          </mxGeometry>
        </mxCell>
        <mxCell id="77qu3Phl0J8RK2gG2Oh3-18" style="edgeStyle=orthogonalEdgeStyle;rounded=0;orthogonalLoop=1;jettySize=auto;html=1;" edge="1" parent="WIyWlLk6GJQsqaUBKTNV-1" source="77qu3Phl0J8RK2gG2Oh3-6" target="77qu3Phl0J8RK2gG2Oh3-16">
          <mxGeometry relative="1" as="geometry" />
        </mxCell>
        <mxCell id="77qu3Phl0J8RK2gG2Oh3-6" value="SecondArray[count] = FirstArray[i]" style="rounded=0;whiteSpace=wrap;html=1;" vertex="1" parent="WIyWlLk6GJQsqaUBKTNV-1">
          <mxGeometry x="-110" y="180" width="200" height="50" as="geometry" />
        </mxCell>
        <mxCell id="77qu3Phl0J8RK2gG2Oh3-21" style="edgeStyle=orthogonalEdgeStyle;rounded=0;orthogonalLoop=1;jettySize=auto;html=1;" edge="1" parent="WIyWlLk6GJQsqaUBKTNV-1" source="77qu3Phl0J8RK2gG2Oh3-9" target="77qu3Phl0J8RK2gG2Oh3-20">
          <mxGeometry relative="1" as="geometry" />
        </mxCell>
        <mxCell id="77qu3Phl0J8RK2gG2Oh3-22" value="No" style="edgeLabel;html=1;align=center;verticalAlign=middle;resizable=0;points=[];" vertex="1" connectable="0" parent="77qu3Phl0J8RK2gG2Oh3-21">
          <mxGeometry x="-0.1785" relative="1" as="geometry">
            <mxPoint as="offset" />
          </mxGeometry>
        </mxCell>
        <mxCell id="77qu3Phl0J8RK2gG2Oh3-9" value="i&amp;lt;FirstArray.length;" style="rhombus;whiteSpace=wrap;html=1;" vertex="1" parent="WIyWlLk6GJQsqaUBKTNV-1">
          <mxGeometry x="310" y="177.5" width="140" height="55" as="geometry" />
        </mxCell>
        <mxCell id="77qu3Phl0J8RK2gG2Oh3-19" style="edgeStyle=orthogonalEdgeStyle;rounded=0;orthogonalLoop=1;jettySize=auto;html=1;" edge="1" parent="WIyWlLk6GJQsqaUBKTNV-1" source="77qu3Phl0J8RK2gG2Oh3-16" target="77qu3Phl0J8RK2gG2Oh3-9">
          <mxGeometry relative="1" as="geometry" />
        </mxCell>
        <mxCell id="77qu3Phl0J8RK2gG2Oh3-16" value="count++;&lt;br&gt;i++;" style="rounded=0;whiteSpace=wrap;html=1;" vertex="1" parent="WIyWlLk6GJQsqaUBKTNV-1">
          <mxGeometry x="160" y="180" width="80" height="50" as="geometry" />
        </mxCell>
        <mxCell id="77qu3Phl0J8RK2gG2Oh3-20" value="Print SecondArray" style="shape=document;whiteSpace=wrap;html=1;boundedLbl=1;" vertex="1" parent="WIyWlLk6GJQsqaUBKTNV-1">
          <mxGeometry x="580" y="165" width="120" height="80" as="geometry" />
        </mxCell>
      </root>
    </mxGraphModel>
  </diagram>
</mxfile>
